name C:\Users\u0101727\Documents\MyRepositories\upper-imu-dc\Results\main_tracking\Case_32\ABD01_linearAccelerations_groundFrame.mot
datacolumns 4
datarows 70
range 6.31000000 7.00000000
endheader 
time	radius_imu_x	radius_imu_y	radius_imu_z	
          6.31000000	          0.54920925	          9.79514062	         -0.25139912	
          6.32000000	          0.44925863	          9.76293916	         -0.25169356	
          6.33000000	          0.33710902	          9.71998358	         -0.24163029	
          6.34000000	          0.22133753	          9.67272118	         -0.21944764	
          6.35000000	          0.10781859	          9.62811444	         -0.18376261	
          6.36000000	         -0.00149975	          9.59223227	         -0.13455540	
          6.37000000	         -0.10859898	          9.56860991	         -0.07422228	
          6.38000000	         -0.21781638	          9.55706847	         -0.00800363	
          6.39000000	         -0.33299806	          9.55391452	          0.05689896	
          6.40000000	         -0.45457130	          9.55393183	          0.11354717	
          6.41000000	         -0.57820818	          9.55328763	          0.15785728	
          6.42000000	         -0.69582820	          9.55150498	          0.19005423	
          6.43000000	         -0.79821962	          9.55125370	          0.21417736	
          6.44000000	         -0.87808880	          9.55631221	          0.23608477	
          6.45000000	         -0.93248313	          9.56909524	          0.26103988	
          6.46000000	         -0.96365920	          9.58909326	          0.29184274	
          6.47000000	         -0.97794306	          9.61284559	          0.32806634	
          6.48000000	         -0.98286613	          9.63531848	          0.36655454	
          6.49000000	         -0.98371138	          9.65207856	          0.40292183	
          6.50000000	         -0.98125826	          9.66132707	          0.43331038	
          6.51000000	         -0.97193084	          9.66479699	          0.45546918	
          6.52000000	         -0.94997814	          9.66696277	          0.46873337	
          6.53000000	         -0.91026688	          9.67286166	          0.47323653	
          6.54000000	         -0.85033916	          9.68554933	          0.46896919	
          6.55000000	         -0.77106950	          9.70443718	          0.45521750	
          6.56000000	         -0.67595714	          9.72539351	          0.43074088	
          6.57000000	         -0.56955090	          9.74261889	          0.39470185	
          6.58000000	         -0.45581843	          9.75135567	          0.34785955	
          6.59000000	         -0.33731474	          9.75002321	          0.29321503	
          6.60000000	         -0.21541630	          9.74071848	          0.23561567	
          6.61000000	         -0.09112298	          9.72796291	          0.18052486	
          6.62000000	          0.03423289	          9.71653342	          0.13256529	
          6.63000000	          0.15857523	          9.70970524	          0.09456243	
          6.64000000	          0.27893181	          9.70881043	          0.06760627	
          6.65000000	          0.39143058	          9.71382190	          0.05187641	
          6.66000000	          0.49131040	          9.72383961	          0.04731977	
          6.67000000	          0.57303604	          9.73673800	          0.05347126	
          6.68000000	          0.63085996	          9.74834041	          0.06860863	
          6.69000000	          0.65995894	          9.75224585	          0.08919358	
          6.70000000	          0.65771743	          9.74136717	          0.11051772	
          6.71000000	          0.62458034	          9.71111297	          0.12858736	
          6.72000000	          0.56427552	          9.66238127	          0.14209015	
          6.73000000	          0.48338539	          9.60205752	          0.15296413	
          6.74000000	          0.39008086	          9.54063793	          0.16530562	
          6.75000000	          0.29214375	          9.48880613	          0.18368846	
          6.76000000	          0.19513594	          9.45498113	          0.21200866	
          6.77000000	          0.10184791	          9.44445184	          0.25308922	
          6.78000000	          0.01320605	          9.45932474	          0.30846474	
          6.79000000	         -0.07036009	          9.49829526	          0.37779468	
          6.80000000	         -0.14808905	          9.55624639	          0.45821477	
          6.81000000	         -0.21876558	          9.62450933	          0.54437122	
          6.82000000	         -0.28084089	          9.69228246	          0.62934867	
          6.83000000	         -0.33245187	          9.74883502	          0.70608331	
          6.84000000	         -0.37150231	          9.78569587	          0.76873244	
          6.85000000	         -0.39598663	          9.79830053	          0.81369580	
          6.86000000	         -0.40442496	          9.78708076	          0.84027823	
          6.87000000	         -0.39623698	          9.75788709	          0.85091295	
          6.88000000	         -0.37198272	          9.72099614	          0.85046333	
          6.89000000	         -0.33339613	          9.68815350	          0.84437198	
          6.90000000	         -0.28313020	          9.66848832	          0.83641769	
          6.91000000	         -0.22477331	          9.66538214	          0.82738265	
          6.92000000	         -0.16306335	          9.67613070	          0.81546075	
          6.93000000	         -0.10402107	          9.69476155	          0.79823682	
          6.94000000	         -0.05423927	          9.71603560	          0.77489127	
          6.95000000	         -0.01934245	          9.73779609	          0.74705062	
          6.96000000	         -0.00234432	          9.76034714	          0.71783582	
          6.97000000	         -0.00266210	          9.78378906	          0.69000188	
          6.98000000	         -0.01634324	          9.80566152	          0.66465144	
          6.99000000	         -0.03758073	          9.82086280	          0.64148389	
          7.00000000	         -0.06073133	          9.82378046	          0.62021234	
